<mxfile host="65bd71144e">
    <diagram id="XUgAwDAo2gT2hr8prrQE" name="Page-1">
        <mxGraphModel dx="1658" dy="662" grid="1" gridSize="10" guides="1" tooltips="1" connect="1" arrows="1" fold="1" page="1" pageScale="1" pageWidth="827" pageHeight="1169" math="0" shadow="0">
            <root>
                <mxCell id="0"/>
                <mxCell id="1" parent="0"/>
                <mxCell id="124" value="" style="group" vertex="1" connectable="0" parent="1">
                    <mxGeometry x="20" y="20" width="980" height="490" as="geometry"/>
                </mxCell>
                <mxCell id="3" value="PKI (Public Key Infrastructure)" style="rounded=1;fillColor=none;strokeColor=default;shadow=1;gradientColor=none;fontStyle=1;fontColor=#23445D;fontSize=18;strokeWidth=3;verticalAlign=top;" vertex="1" parent="124">
                    <mxGeometry width="980" height="490" as="geometry"/>
                </mxCell>
                <mxCell id="4" value="&lt;font style=&quot;font-size: 16px;&quot;&gt;&lt;br&gt;&lt;/font&gt;" style="edgeLabel;html=1;align=left;verticalAlign=middle;resizable=0;points=[];labelBackgroundColor=none;fontColor=#23445D;" vertex="1" connectable="0" parent="124">
                    <mxGeometry x="89.99545454545455" y="-5.99727272727273" as="geometry">
                        <mxPoint x="22" y="64" as="offset"/>
                    </mxGeometry>
                </mxCell>
                <mxCell id="120" value="" style="group;fontSize=18;" vertex="1" connectable="0" parent="124">
                    <mxGeometry x="500" y="49" width="427" height="410" as="geometry"/>
                </mxCell>
                <mxCell id="115" value="Server" style="rounded=1;fillColor=#10739E;strokeColor=none;shadow=1;gradientColor=none;fontStyle=1;fontColor=#FFFFFF;fontSize=18;verticalAlign=top;opacity=50;" vertex="1" parent="120">
                    <mxGeometry width="427" height="410" as="geometry"/>
                </mxCell>
                <mxCell id="116" value="1a) Load the x509 certificate and&#10;the script from local context&#10;1b) Extract public key (RSA) and&#10;signature (sha256) from the x509 certificate" style="rounded=1;fillColor=#10739E;strokeColor=none;shadow=1;gradientColor=none;fontStyle=1;fontColor=#FFFFFF;fontSize=14;align=left;spacingLeft=5;" vertex="1" parent="120">
                    <mxGeometry x="20.48" y="49.48504983388704" width="387.58" height="104.46843853820597" as="geometry"/>
                </mxCell>
                <mxCell id="119" value="2a) Hash the script input parameter (sha256)&#10;2b) Compare signatures using PKCS1v15" style="rounded=1;fillColor=#10739E;strokeColor=none;shadow=1;gradientColor=none;fontStyle=1;fontColor=#FFFFFF;fontSize=14;align=left;spacingLeft=5;" vertex="1" parent="120">
                    <mxGeometry x="20.48" y="177.04651162790697" width="387.58" height="64.88039867109634" as="geometry"/>
                </mxCell>
                <mxCell id="134" value="x509 certificates" style="rounded=1;fillColor=#dae8fc;strokeColor=#6c8ebf;shadow=1;fontStyle=1;fontSize=14;align=center;spacingLeft=5;" vertex="1" parent="120">
                    <mxGeometry x="60" y="341" width="129.52" height="49" as="geometry"/>
                </mxCell>
                <mxCell id="135" value="Bash scripts" style="rounded=1;fillColor=#dae8fc;strokeColor=#6c8ebf;shadow=1;fontStyle=1;fontSize=14;align=center;spacingLeft=5;" vertex="1" parent="120">
                    <mxGeometry x="230" y="341" width="129.52" height="49" as="geometry"/>
                </mxCell>
                <mxCell id="137" value="" style="edgeStyle=orthogonalEdgeStyle;strokeWidth=4;endArrow=block;endFill=1;fontStyle=1;strokeColor=#6c8ebf;exitX=0.75;exitY=1;exitDx=0;exitDy=0;fillColor=#dae8fc;startArrow=none;startFill=0;entryX=1;entryY=0.75;entryDx=0;entryDy=0;curved=1;" edge="1" parent="120" source="134" target="116">
                    <mxGeometry x="-1673.5" y="-8.5" width="100" height="100" as="geometry">
                        <mxPoint x="10" y="317.5" as="sourcePoint"/>
                        <mxPoint x="-183" y="107.5" as="targetPoint"/>
                        <Array as="points">
                            <mxPoint x="157" y="421"/>
                            <mxPoint x="460" y="421"/>
                            <mxPoint x="460" y="128"/>
                        </Array>
                    </mxGeometry>
                </mxCell>
                <mxCell id="138" value="" style="edgeStyle=orthogonalEdgeStyle;strokeWidth=4;endArrow=block;endFill=1;fontStyle=1;strokeColor=#6c8ebf;exitX=1;exitY=0.5;exitDx=0;exitDy=0;fillColor=#dae8fc;startArrow=none;startFill=0;entryX=1;entryY=0.25;entryDx=0;entryDy=0;curved=1;" edge="1" parent="120" source="135" target="116">
                    <mxGeometry x="-2183.5" y="-67.5" width="100" height="100" as="geometry">
                        <mxPoint x="167.14000000000033" y="400" as="sourcePoint"/>
                        <mxPoint x="418.05999999999995" y="137.8363787375414" as="targetPoint"/>
                        <Array as="points">
                            <mxPoint x="470" y="365"/>
                            <mxPoint x="470" y="76"/>
                        </Array>
                    </mxGeometry>
                </mxCell>
                <mxCell id="121" value="3a) If valid, return execute bash script and return result&#10;3b) If invalid, return error and don't execute script" style="rounded=1;fillColor=#10739E;strokeColor=none;shadow=1;gradientColor=none;fontStyle=1;fontColor=#FFFFFF;fontSize=14;align=left;spacingLeft=5;" vertex="1" parent="124">
                    <mxGeometry x="520.4796163069544" y="310" width="387.5767386091127" height="60" as="geometry"/>
                </mxCell>
                <mxCell id="122" value="" style="edgeStyle=elbowEdgeStyle;strokeWidth=4;endArrow=block;endFill=1;fontStyle=1;strokeColor=#82b366;exitX=0;exitY=0.75;exitDx=0;exitDy=0;fillColor=#d5e8d4;startArrow=none;startFill=0;entryX=1;entryY=0.75;entryDx=0;entryDy=0;" edge="1" parent="124" source="115" target="112">
                    <mxGeometry x="-1163.5" y="50.5" width="100" height="100" as="geometry">
                        <mxPoint x="157" y="99.25" as="sourcePoint"/>
                        <mxPoint x="510.00000000000045" y="134.25" as="targetPoint"/>
                        <Array as="points">
                            <mxPoint x="380" y="254"/>
                        </Array>
                    </mxGeometry>
                </mxCell>
                <mxCell id="123" value="" style="group" vertex="1" connectable="0" parent="124">
                    <mxGeometry x="50" y="49" width="257" height="161" as="geometry"/>
                </mxCell>
                <mxCell id="112" value="Client" style="rounded=1;fillColor=#10739E;strokeColor=none;shadow=1;gradientColor=none;fontStyle=1;fontColor=#FFFFFF;fontSize=18;verticalAlign=top;opacity=50;" vertex="1" parent="123">
                    <mxGeometry width="257" height="130" as="geometry"/>
                </mxCell>
                <mxCell id="110" value="http://localhost:8080/execute&#10;--data-binary @./&lt;script-path&gt;" style="rounded=1;fillColor=#10739E;strokeColor=none;shadow=1;gradientColor=none;fontStyle=1;fontColor=#FFFFFF;fontSize=14;align=left;spacingLeft=5;" vertex="1" parent="123">
                    <mxGeometry x="18.5" y="45" width="220" height="65" as="geometry"/>
                </mxCell>
                <mxCell id="118" value="" style="edgeStyle=elbowEdgeStyle;strokeWidth=4;endArrow=block;endFill=1;fontStyle=1;strokeColor=#82b366;exitX=1;exitY=0.25;exitDx=0;exitDy=0;fillColor=#d5e8d4;startArrow=none;startFill=0;entryX=0;entryY=0.25;entryDx=0;entryDy=0;" edge="1" parent="124" source="112" target="115">
                    <mxGeometry x="-1173.5" y="40.5" width="100" height="100" as="geometry">
                        <mxPoint x="230" y="164" as="sourcePoint"/>
                        <mxPoint x="434.5" y="181" as="targetPoint"/>
                        <Array as="points">
                            <mxPoint x="430" y="114"/>
                        </Array>
                    </mxGeometry>
                </mxCell>
                <mxCell id="129" value="" style="edgeStyle=elbowEdgeStyle;strokeWidth=4;endArrow=none;endFill=0;fontStyle=1;strokeColor=#d79b00;exitX=0;exitY=0.5;exitDx=0;exitDy=0;fillColor=#ffe6cc;startArrow=block;startFill=1;entryX=1;entryY=0.5;entryDx=0;entryDy=0;" edge="1" parent="124" source="134" target="127">
                    <mxGeometry x="-1173.5" y="40.5" width="100" height="100" as="geometry">
                        <mxPoint x="510" y="284.7500000000001" as="sourcePoint"/>
                        <mxPoint x="317" y="179.75" as="targetPoint"/>
                    </mxGeometry>
                </mxCell>
                <mxCell id="125" value="" style="group" vertex="1" connectable="0" parent="124">
                    <mxGeometry x="50" y="328" width="257" height="161" as="geometry"/>
                </mxCell>
                <mxCell id="136" value="" style="group" vertex="1" connectable="0" parent="125">
                    <mxGeometry width="257" height="130" as="geometry"/>
                </mxCell>
                <mxCell id="126" value="CA (self-signed)" style="rounded=1;fillColor=#10739E;strokeColor=none;shadow=1;gradientColor=none;fontStyle=1;fontColor=#FFFFFF;fontSize=18;verticalAlign=top;opacity=50;" vertex="1" parent="136">
                    <mxGeometry width="257" height="130" as="geometry"/>
                </mxCell>
                <mxCell id="127" value="openssl genpkey -&gt; ca-key.pem&#10;openssl req -&gt; ca-cert.pem" style="rounded=1;fillColor=#10739E;strokeColor=none;shadow=1;gradientColor=none;fontStyle=1;fontColor=#FFFFFF;fontSize=14;align=left;spacingLeft=5;" vertex="1" parent="136">
                    <mxGeometry x="18.5" y="45" width="220" height="65" as="geometry"/>
                </mxCell>
            </root>
        </mxGraphModel>
    </diagram>
</mxfile>